<?xml version="1.0" standalone="no"?>
<!DOCTYPE svg PUBLIC "-//W3C//DTD SVG 20010904//EN"
 "http://www.w3.org/TR/2001/REC-SVG-20010904/DTD/svg10.dtd">
<svg version="1.0" xmlns="http://www.w3.org/2000/svg"
 width="822.000000pt" height="822.000000pt" viewBox="0 0 822.000000 822.000000"
 preserveAspectRatio="xMidYMid meet">
<metadata>
Created by potrace 1.11, written by Peter Selinger 2001-2013
</metadata>
<g transform="translate(0.000000,822.000000) scale(0.100000,-0.100000)"
fill="#000000" stroke="none">
<path d="M0 8195 c0 -13 99 -15 828 -17 1377 -2 1430 -2 1642 6 113 4 210 7
215 7 6 0 181 -3 390 -6 275 -5 4232 -9 5078 -5 53 0 67 3 67 15 0 13 -463 15
-4110 15 -3647 0 -4110 -2 -4110 -15z"/>
<path d="M2625 8000 c-66 -5 -137 -7 -157 -4 -20 3 -64 -2 -98 -10 -34 -9 -86
-16 -115 -16 -30 0 -74 -6 -97 -14 -24 -8 -71 -16 -105 -19 -34 -3 -72 -12
-85 -21 -12 -9 -43 -16 -68 -16 -25 -1 -56 -7 -70 -15 -14 -8 -39 -14 -56 -15
-16 0 -59 -12 -95 -26 -35 -14 -90 -34 -122 -44 -32 -10 -66 -25 -75 -33 -10
-7 -43 -22 -74 -31 -32 -10 -60 -22 -63 -26 -3 -5 -31 -20 -62 -35 -32 -14
-72 -37 -89 -50 -18 -14 -37 -25 -43 -25 -5 0 -29 -15 -53 -33 -24 -18 -55
-40 -70 -50 -38 -24 -106 -94 -134 -138 -26 -41 -38 -51 -64 -53 -23 -1 -128
-94 -136 -120 -4 -12 -17 -34 -30 -49 -13 -16 -27 -41 -30 -55 -4 -15 -10 -31
-14 -37 -17 -22 -8 -151 14 -195 32 -65 61 -83 122 -73 44 8 51 13 73 51 36
66 216 243 286 281 33 18 85 47 115 63 251 139 544 251 738 282 48 8 116 22
152 31 36 9 112 20 170 25 58 5 152 16 210 25 74 11 167 15 315 14 293 -2 323
-3 385 -17 30 -6 98 -18 150 -27 52 -9 122 -23 155 -31 33 -8 91 -22 130 -30
38 -9 85 -24 106 -34 20 -11 54 -21 76 -24 22 -2 68 -16 101 -30 34 -14 69
-26 79 -26 10 0 56 -18 103 -40 47 -22 92 -40 100 -40 9 0 24 -6 35 -14 11 -7
54 -28 95 -45 41 -18 95 -45 120 -61 25 -15 56 -31 70 -35 14 -5 42 -19 63
-32 22 -14 60 -36 85 -50 26 -14 67 -42 92 -62 25 -20 57 -43 72 -50 14 -7 60
-42 102 -77 42 -35 88 -67 101 -70 14 -3 29 -12 33 -19 4 -7 75 -60 157 -119
83 -58 170 -123 195 -145 25 -22 63 -52 85 -67 22 -14 60 -47 86 -73 41 -41
206 -197 269 -254 56 -51 283 -297 307 -333 15 -21 48 -65 75 -97 26 -32 48
-61 48 -65 0 -4 21 -30 46 -57 25 -28 55 -66 66 -85 12 -19 43 -61 70 -92 26
-31 48 -61 48 -66 0 -6 17 -34 37 -63 43 -64 104 -170 167 -293 26 -49 51 -95
58 -103 27 -33 170 -319 211 -423 49 -123 97 -265 97 -285 0 -11 10 -38 22
-60 11 -22 27 -69 34 -105 19 -97 41 -192 53 -223 6 -16 11 -46 11 -68 0 -22
7 -56 15 -77 9 -20 18 -64 21 -97 3 -33 7 -80 9 -105 22 -218 20 -351 -7 -440
-29 -96 -31 -125 -9 -144 38 -35 146 10 164 69 5 17 15 44 22 60 56 127 78
230 93 445 8 127 4 430 -7 525 -6 50 -14 113 -16 140 -3 28 -12 73 -20 100 -8
28 -18 75 -23 105 -5 30 -16 75 -25 100 -8 25 -20 63 -25 85 -12 44 -65 193
-87 240 -7 17 -23 59 -36 95 -12 36 -37 95 -55 132 -19 37 -34 74 -34 82 0 14
-81 187 -120 256 -11 19 -39 71 -61 115 -23 44 -47 87 -55 95 -7 9 -29 48 -49
88 -20 39 -46 79 -59 89 -12 10 -37 46 -56 81 -18 34 -48 76 -67 92 -18 16
-47 53 -64 81 -16 29 -53 76 -82 105 -129 130 -184 191 -197 218 -18 35 -395
415 -462 466 -102 77 -165 128 -222 181 -34 31 -81 69 -106 84 -25 15 -61 42
-80 60 -19 18 -66 53 -105 78 -38 24 -79 54 -90 67 -11 12 -51 38 -90 57 -38
20 -90 54 -115 75 -25 22 -63 49 -85 60 -22 12 -58 35 -80 53 -56 44 -84 60
-130 75 -22 7 -56 24 -75 40 -43 33 -94 60 -114 60 -8 0 -53 20 -100 45 -47
24 -104 48 -128 51 -24 4 -54 15 -68 24 -31 22 -97 50 -117 50 -8 0 -46 14
-85 31 -38 17 -97 36 -131 43 -34 8 -80 21 -102 31 -22 9 -69 21 -105 25 -36
4 -85 15 -110 25 -24 9 -78 20 -120 25 -41 5 -91 14 -110 20 -19 5 -55 10 -80
10 -25 0 -65 8 -90 17 -43 15 -72 18 -300 28 -52 3 -126 7 -165 9 -38 2 -124
0 -190 -4z"/>
<path d="M2041 2283 l-21 -18 19 -60 c20 -63 22 -62 40 23 15 73 4 89 -38 55z"/>
<path d="M1894 2198 c-35 -56 -44 -88 -50 -192 l-7 -111 34 -34 c19 -18 51
-44 72 -57 45 -29 47 -51 7 -89 -16 -16 -30 -33 -30 -38 0 -5 -18 -25 -39 -45
-22 -20 -55 -64 -75 -98 -19 -33 -42 -67 -51 -74 -9 -8 -29 -39 -45 -70 -20
-39 -39 -62 -64 -75 -20 -11 -36 -24 -36 -30 0 -12 102 -65 125 -65 8 0 19 18
26 41 8 26 21 44 35 49 13 5 31 28 43 54 11 26 23 46 26 46 3 0 16 -9 28 -20
12 -12 38 -31 57 -43 19 -13 36 -32 38 -44 3 -20 -43 -98 -73 -123 -8 -7 -15
-25 -15 -41 0 -18 -8 -36 -21 -47 -76 -61 -72 -55 -61 -96 12 -43 38 -76 59
-76 8 0 21 17 30 37 8 21 36 62 61 92 25 29 63 81 85 115 21 33 49 72 62 86
13 14 26 41 30 60 3 19 30 81 58 136 42 82 57 103 82 113 26 10 32 9 42 -6 40
-59 92 -83 120 -54 40 39 93 214 77 255 -12 31 4 64 35 71 16 3 39 17 51 30
19 20 21 27 10 40 -13 15 -50 21 -50 8 0 -5 -29 -38 -65 -75 -56 -59 -64 -71
-59 -97 3 -16 1 -39 -6 -51 -12 -23 -13 -23 -56 26 -24 27 -42 55 -39 62 2 6
-2 12 -9 12 -24 0 -41 29 -28 48 21 30 42 84 42 109 0 36 -28 83 -56 93 -56
22 -124 -38 -124 -110 0 -16 -4 -30 -10 -30 -5 0 -10 11 -10 25 0 14 -4 25
-10 25 -5 0 -10 -11 -10 -25 0 -14 -6 -25 -12 -26 -28 -3 -64 4 -83 14 -11 7
-38 16 -60 22 l-40 10 2 95 c1 52 4 113 5 135 3 34 0 40 -19 43 -11 2 -25 -3
-29 -10z m696 -328 c0 -5 -4 -10 -10 -10 -5 0 -10 5 -10 10 0 6 5 10 10 10 6
0 10 -4 10 -10z"/>
<path d="M2037 2056 c-7 -47 -4 -66 9 -54 3 3 4 28 2 54 l-3 49 -8 -49z"/>
<path d="M2390 1780 c0 -5 5 -10 10 -10 6 0 10 5 10 10 0 6 -4 10 -10 10 -5 0
-10 -4 -10 -10z"/>
<path d="M7868 1385 c-54 -7 -104 -18 -112 -24 -8 -7 -45 -14 -83 -16 -37 -3
-83 -9 -100 -14 -21 -6 -45 -6 -68 0 -36 10 -107 2 -187 -23 -32 -10 -41 -9
-57 6 -20 19 -41 14 -41 -8 0 -7 -30 -25 -67 -41 -37 -17 -79 -39 -93 -51 -14
-12 -45 -27 -69 -34 -39 -10 -62 -22 -136 -68 -11 -7 -28 -15 -37 -18 -10 -4
-18 -15 -18 -25 0 -18 -57 -69 -77 -69 -39 0 -103 -64 -103 -102 0 -10 -7 -18
-16 -18 -9 0 -28 -6 -42 -13 -15 -8 -42 -21 -60 -30 -19 -9 -45 -17 -58 -17
-25 0 -84 -26 -94 -41 -9 -13 -114 -59 -137 -59 -12 0 -23 5 -25 11 -2 7 -35
11 -93 10 -69 -1 -96 -6 -123 -21 -18 -11 -42 -20 -52 -20 -10 0 -22 -5 -25
-10 -3 -6 -19 -10 -35 -10 -15 0 -30 -5 -32 -12 -5 -14 -13 -15 -155 -27 -67
-6 -125 -6 -143 -1 -19 5 -41 5 -57 -1 -26 -10 -82 -7 -101 5 -14 8 -73 -16
-91 -37 -21 -26 -89 -22 -118 5 l-24 23 -47 -25 c-41 -22 -48 -31 -60 -73 -7
-27 -20 -51 -28 -54 -7 -3 -40 3 -71 14 -105 33 -261 18 -348 -33 -27 -17 -69
-39 -92 -50 -23 -10 -43 -22 -43 -26 0 -4 -11 -19 -25 -34 l-26 -28 -52 26
c-83 40 -158 54 -215 39 -26 -7 -67 -15 -92 -18 -46 -6 -86 -26 -108 -55 -7
-9 -25 -18 -40 -20 -15 -2 -27 -7 -27 -13 -1 -18 -25 -55 -36 -55 -6 0 -20
-11 -31 -25 -11 -14 -26 -25 -34 -25 -9 0 -14 -11 -14 -35 0 -33 -2 -35 -90
-76 -49 -24 -92 -49 -94 -56 -4 -11 415 -13 2324 -13 l2330 0 0 685 c0 646 -1
685 -17 685 -10 0 -67 7 -128 15 -60 8 -110 14 -110 14 0 -1 -44 -7 -97 -14z"/>
<path d="M0 220 c0 -21 8 -24 34 -14 13 5 14 9 5 20 -17 21 -39 17 -39 -6z"/>
<path d="M2940 179 c0 -6 -13 -7 -35 -3 -42 7 -46 -2 -8 -17 35 -13 500 -14
533 0 39 15 26 17 -267 25 -151 4 -223 3 -223 -5z"/>
<path d="M2355 40 c25 -11 81 -13 71 -3 -4 4 -26 8 -49 9 -31 2 -37 0 -22 -6z"/>
<path d="M2475 39 c-24 -5 -19 -7 24 -8 30 0 51 2 47 6 -9 9 -35 10 -71 2z"/>
</g>
</svg>
